<mxfile host="" modified="2020-06-08T14:06:20.688Z" agent="5.0 (Windows NT 10.0; Win64; x64) AppleWebKit/537.36 (KHTML, like Gecko) Code/1.45.1 Chrome/78.0.3904.130 Electron/7.2.4 Safari/537.36" etag="mzjfAjMquGiXUDn8CxPC" version="13.1.3">
    <diagram id="5luzVgcP7TUmIMXizj3F" name="第 1 页">
        <mxGraphModel dx="842" dy="453" grid="1" gridSize="10" guides="1" tooltips="1" connect="1" arrows="1" fold="1" page="1" pageScale="1" pageWidth="2339" pageHeight="3300" math="0" shadow="0">
            <root>
                <mxCell id="5sGSZMHLeYY69dn_kVZO-0"/>
                <mxCell id="5sGSZMHLeYY69dn_kVZO-1" parent="5sGSZMHLeYY69dn_kVZO-0"/>
                <mxCell id="SuL5Eg0-ibCfi3a6gAe3-0" value="Components" style="rounded=1;whiteSpace=wrap;html=1;" parent="5sGSZMHLeYY69dn_kVZO-1" vertex="1">
                    <mxGeometry x="70" y="270" width="120" height="60" as="geometry"/>
                </mxCell>
                <mxCell id="YzsW1cNxrIFVFssFlQp3-3" value="state" style="shape=cylinder;whiteSpace=wrap;html=1;boundedLbl=1;backgroundOutline=1;fontSize=12;" parent="5sGSZMHLeYY69dn_kVZO-1" vertex="1">
                    <mxGeometry x="480" width="60" height="80" as="geometry"/>
                </mxCell>
                <mxCell id="h3vqutCwngKE9hVj-RJg-0" value="action" style="rounded=1;whiteSpace=wrap;html=1;fontSize=12;" parent="5sGSZMHLeYY69dn_kVZO-1" vertex="1">
                    <mxGeometry x="320" y="270" width="120" height="60" as="geometry"/>
                </mxCell>
                <mxCell id="Dz05zyQlovxlwVgcVjHD-0" value="service" style="rounded=1;whiteSpace=wrap;html=1;" parent="5sGSZMHLeYY69dn_kVZO-1" vertex="1">
                    <mxGeometry x="840" y="560" width="120" height="60" as="geometry"/>
                </mxCell>
                <mxCell id="kmxSr2vNWZwSjeOcJR2n-0" value="server" style="rounded=1;whiteSpace=wrap;html=1;" parent="5sGSZMHLeYY69dn_kVZO-1" vertex="1">
                    <mxGeometry x="320" y="560" width="120" height="60" as="geometry"/>
                </mxCell>
                <mxCell id="3vyQdeVH1D9SCohBNorF-0" value="" style="endArrow=classic;html=1;entryX=0.5;entryY=0;entryDx=0;entryDy=0;exitX=0.5;exitY=1;exitDx=0;exitDy=0;" parent="5sGSZMHLeYY69dn_kVZO-1" source="D1U7nmCzpQKakKzwbbEI-5" target="Dz05zyQlovxlwVgcVjHD-0" edge="1">
                    <mxGeometry width="50" height="50" relative="1" as="geometry">
                        <mxPoint x="860" y="380" as="sourcePoint"/>
                        <mxPoint x="750.4999999999998" y="520" as="targetPoint"/>
                    </mxGeometry>
                </mxCell>
                <mxCell id="EunVyzoaDcvzdPgyXf3d-0" value="" style="endArrow=classic;html=1;entryX=1;entryY=0.5;entryDx=0;entryDy=0;exitX=0;exitY=0.5;exitDx=0;exitDy=0;" parent="5sGSZMHLeYY69dn_kVZO-1" source="SSINT49-NDXEBSPyKeo1-0" target="kmxSr2vNWZwSjeOcJR2n-0" edge="1">
                    <mxGeometry width="50" height="50" relative="1" as="geometry">
                        <mxPoint x="789.9999999999998" y="589.5" as="sourcePoint"/>
                        <mxPoint x="470" y="589.5" as="targetPoint"/>
                    </mxGeometry>
                </mxCell>
                <mxCell id="SSINT49-NDXEBSPyKeo1-0" value="service 中 请求 server 中的数据" style="text;html=1;align=center;verticalAlign=middle;resizable=0;points=[];autosize=1;fontSize=12;" parent="5sGSZMHLeYY69dn_kVZO-1" vertex="1">
                    <mxGeometry x="520" y="580" width="180" height="20" as="geometry"/>
                </mxCell>
                <mxCell id="SSINT49-NDXEBSPyKeo1-1" value="" style="endArrow=classic;html=1;entryX=1;entryY=0.5;entryDx=0;entryDy=0;exitX=0;exitY=0.5;exitDx=0;exitDy=0;" parent="5sGSZMHLeYY69dn_kVZO-1" source="Dz05zyQlovxlwVgcVjHD-0" target="SSINT49-NDXEBSPyKeo1-0" edge="1">
                    <mxGeometry width="50" height="50" relative="1" as="geometry">
                        <mxPoint x="800" y="590" as="sourcePoint"/>
                        <mxPoint x="440" y="590" as="targetPoint"/>
                    </mxGeometry>
                </mxCell>
                <mxCell id="dftuI7bODbBghQ37piHQ-0" value="" style="endArrow=classic;html=1;exitX=0.5;exitY=1;exitDx=0;exitDy=0;entryX=0.5;entryY=1;entryDx=0;entryDy=0;" parent="5sGSZMHLeYY69dn_kVZO-1" source="kmxSr2vNWZwSjeOcJR2n-0" target="Dz05zyQlovxlwVgcVjHD-0" edge="1">
                    <mxGeometry width="50" height="50" relative="1" as="geometry">
                        <mxPoint x="390.03999999999996" y="633" as="sourcePoint"/>
                        <mxPoint x="848.9999999999998" y="630" as="targetPoint"/>
                        <Array as="points">
                            <mxPoint x="380" y="650"/>
                            <mxPoint x="380" y="680"/>
                            <mxPoint x="900" y="680"/>
                        </Array>
                    </mxGeometry>
                </mxCell>
                <mxCell id="dftuI7bODbBghQ37piHQ-1" value="返回 server 中的数据" style="edgeLabel;html=1;align=center;verticalAlign=middle;resizable=0;points=[];" parent="dftuI7bODbBghQ37piHQ-0" vertex="1" connectable="0">
                    <mxGeometry x="-0.1632" y="1" relative="1" as="geometry">
                        <mxPoint x="49" as="offset"/>
                    </mxGeometry>
                </mxCell>
                <mxCell id="D1U7nmCzpQKakKzwbbEI-5" value="model" style="swimlane;fontSize=12;startSize=40;fillColor=#dae8fc;strokeColor=#6c8ebf;" parent="5sGSZMHLeYY69dn_kVZO-1" vertex="1">
                    <mxGeometry x="800" y="120" width="200" height="320" as="geometry"/>
                </mxCell>
                <mxCell id="D1U7nmCzpQKakKzwbbEI-14" value="reducer" style="shape=delay;whiteSpace=wrap;html=1;fontSize=12;fillColor=#fff2cc;strokeColor=#d6b656;" parent="D1U7nmCzpQKakKzwbbEI-5" vertex="1">
                    <mxGeometry y="40" width="200" height="40" as="geometry"/>
                </mxCell>
                <mxCell id="D1U7nmCzpQKakKzwbbEI-15" value="effect" style="shape=delay;whiteSpace=wrap;html=1;fontSize=12;fillColor=#f8cecc;strokeColor=#b85450;" parent="D1U7nmCzpQKakKzwbbEI-5" vertex="1">
                    <mxGeometry y="280" width="200" height="40" as="geometry"/>
                </mxCell>
                <mxCell id="D1U7nmCzpQKakKzwbbEI-16" value="subscription" style="shape=delay;whiteSpace=wrap;html=1;fontSize=12;fillColor=#e1d5e7;strokeColor=#9673a6;" parent="D1U7nmCzpQKakKzwbbEI-5" vertex="1">
                    <mxGeometry y="160" width="200" height="40" as="geometry"/>
                </mxCell>
                <mxCell id="nJMaEzvH4Hul-W4ckQAg-2" value="" style="endArrow=classic;html=1;fontSize=12;entryX=0;entryY=0.5;entryDx=0;entryDy=0;exitX=1;exitY=0.5;exitDx=0;exitDy=0;" parent="5sGSZMHLeYY69dn_kVZO-1" source="SuL5Eg0-ibCfi3a6gAe3-0" target="h3vqutCwngKE9hVj-RJg-0" edge="1">
                    <mxGeometry width="50" height="50" relative="1" as="geometry">
                        <mxPoint x="220" y="370" as="sourcePoint"/>
                        <mxPoint x="270" y="320" as="targetPoint"/>
                    </mxGeometry>
                </mxCell>
                <mxCell id="nJMaEzvH4Hul-W4ckQAg-3" value="dispath" style="edgeLabel;html=1;align=center;verticalAlign=middle;resizable=0;points=[];fontSize=12;" parent="nJMaEzvH4Hul-W4ckQAg-2" vertex="1" connectable="0">
                    <mxGeometry x="-0.2941" y="-1" relative="1" as="geometry">
                        <mxPoint x="14" y="-1" as="offset"/>
                    </mxGeometry>
                </mxCell>
                <mxCell id="XajyhRsf1_rp8Q-VUOTR-0" value="effects 里的方法通过 yield 调用 service 中的定义的方法" style="text;html=1;align=center;verticalAlign=middle;resizable=0;points=[];autosize=1;fontSize=12;" parent="5sGSZMHLeYY69dn_kVZO-1" vertex="1">
                    <mxGeometry x="740" y="490" width="310" height="20" as="geometry"/>
                </mxCell>
                <mxCell id="5_-fjc8hRsv_AaSCKlnH-0" value="" style="edgeStyle=segmentEdgeStyle;endArrow=classic;html=1;exitX=1;exitY=0.5;exitDx=0;exitDy=0;" parent="5sGSZMHLeYY69dn_kVZO-1" source="Dz05zyQlovxlwVgcVjHD-0" edge="1">
                    <mxGeometry width="50" height="50" relative="1" as="geometry">
                        <mxPoint x="990" y="600" as="sourcePoint"/>
                        <mxPoint x="1000" y="180" as="targetPoint"/>
                        <Array as="points">
                            <mxPoint x="1120" y="590"/>
                            <mxPoint x="1120" y="180"/>
                            <mxPoint x="1030" y="180"/>
                        </Array>
                    </mxGeometry>
                </mxCell>
                <mxCell id="D8wVpj2o0T8RMVLbvARF-1" value="将得到的数据，调用 reducer 更新到 state&amp;nbsp;" style="text;html=1;align=center;verticalAlign=middle;resizable=0;points=[];autosize=1;fontSize=12;" parent="5sGSZMHLeYY69dn_kVZO-1" vertex="1">
                    <mxGeometry x="1030" y="360" width="240" height="20" as="geometry"/>
                </mxCell>
                <mxCell id="zjGXKSOCan6QWqOY553w-0" value="" style="shape=flexArrow;endArrow=classic;startArrow=classic;html=1;fontSize=12;entryX=0;entryY=0.5;entryDx=0;entryDy=0;exitX=0.5;exitY=0;exitDx=0;exitDy=0;" parent="5sGSZMHLeYY69dn_kVZO-1" source="SuL5Eg0-ibCfi3a6gAe3-0" target="YzsW1cNxrIFVFssFlQp3-3" edge="1">
                    <mxGeometry width="50" height="50" relative="1" as="geometry">
                        <mxPoint x="150" y="270" as="sourcePoint"/>
                        <mxPoint x="200" y="220" as="targetPoint"/>
                    </mxGeometry>
                </mxCell>
                <mxCell id="TJ90GOURkmIoON4wkSae-1" value="&lt;span style=&quot;font-size: 11px ; background-color: rgb(255 , 255 , 255)&quot;&gt;通过 connect 进行关联后，容器组件可以拿到 model 中 state 里的值&lt;/span&gt;" style="text;html=1;align=center;verticalAlign=middle;resizable=0;points=[];autosize=1;fontSize=12;" parent="5sGSZMHLeYY69dn_kVZO-1" vertex="1">
                    <mxGeometry x="110" y="80" width="350" height="20" as="geometry"/>
                </mxCell>
                <mxCell id="TJ90GOURkmIoON4wkSae-2" value="" style="endArrow=classic;html=1;fontSize=12;exitX=0;exitY=0.5;exitDx=0;exitDy=0;entryX=1;entryY=0.5;entryDx=0;entryDy=0;" parent="5sGSZMHLeYY69dn_kVZO-1" source="D1U7nmCzpQKakKzwbbEI-14" target="YzsW1cNxrIFVFssFlQp3-3" edge="1">
                    <mxGeometry width="50" height="50" relative="1" as="geometry">
                        <mxPoint x="720" y="90" as="sourcePoint"/>
                        <mxPoint x="770" y="40" as="targetPoint"/>
                    </mxGeometry>
                </mxCell>
                <mxCell id="--MU3mpPZaF6kvVTJt9R-0" value="" style="endArrow=classic;html=1;exitX=0.5;exitY=0;exitDx=0;exitDy=0;entryX=0;entryY=0.5;entryDx=0;entryDy=0;" parent="5sGSZMHLeYY69dn_kVZO-1" source="h3vqutCwngKE9hVj-RJg-0" target="D1U7nmCzpQKakKzwbbEI-14" edge="1">
                    <mxGeometry width="50" height="50" relative="1" as="geometry">
                        <mxPoint x="220" y="220" as="sourcePoint"/>
                        <mxPoint x="750" y="220" as="targetPoint"/>
                        <Array as="points">
                            <mxPoint x="380" y="180"/>
                            <mxPoint x="730" y="180"/>
                        </Array>
                    </mxGeometry>
                </mxCell>
                <mxCell id="g3ZBU62lmmGFfrhbFkSP-0" value="同步方法:&amp;nbsp; &amp;nbsp; &amp;nbsp; dispatch 到 model 中 reducer 里的方法，对数据进行更新" style="text;html=1;align=center;verticalAlign=middle;resizable=0;points=[];autosize=1;fontSize=12;" parent="5sGSZMHLeYY69dn_kVZO-1" vertex="1">
                    <mxGeometry x="310" y="180" width="390" height="20" as="geometry"/>
                </mxCell>
                <mxCell id="N5wPAgKknqskK1Oy7wxB-0" value="" style="endArrow=classic;html=1;fontSize=12;entryX=0;entryY=0.5;entryDx=0;entryDy=0;exitX=0.5;exitY=1;exitDx=0;exitDy=0;" parent="5sGSZMHLeYY69dn_kVZO-1" source="h3vqutCwngKE9hVj-RJg-0" target="D1U7nmCzpQKakKzwbbEI-15" edge="1">
                    <mxGeometry width="50" height="50" relative="1" as="geometry">
                        <mxPoint x="470" y="430" as="sourcePoint"/>
                        <mxPoint x="520" y="380" as="targetPoint"/>
                        <Array as="points">
                            <mxPoint x="380" y="420"/>
                        </Array>
                    </mxGeometry>
                </mxCell>
                <mxCell id="ZT_BPjnvB9a1OKsx-e9D-0" value="异步方法：&amp;nbsp; &amp;nbsp; dispath 到 model 中 effects 里的方法" style="text;html=1;align=center;verticalAlign=middle;resizable=0;points=[];autosize=1;fontSize=12;" parent="5sGSZMHLeYY69dn_kVZO-1" vertex="1">
                    <mxGeometry x="310" y="400" width="280" height="20" as="geometry"/>
                </mxCell>
                <mxCell id="ZT_BPjnvB9a1OKsx-e9D-1" value="" style="endArrow=classic;html=1;fontSize=12;entryX=1;entryY=0.5;entryDx=0;entryDy=0;exitX=0;exitY=0.5;exitDx=0;exitDy=0;" parent="5sGSZMHLeYY69dn_kVZO-1" source="D1U7nmCzpQKakKzwbbEI-16" target="h3vqutCwngKE9hVj-RJg-0" edge="1">
                    <mxGeometry width="50" height="50" relative="1" as="geometry">
                        <mxPoint x="650" y="410" as="sourcePoint"/>
                        <mxPoint x="700" y="360" as="targetPoint"/>
                    </mxGeometry>
                </mxCell>
                <mxCell id="ZT_BPjnvB9a1OKsx-e9D-3" value="dispath" style="edgeLabel;html=1;align=center;verticalAlign=middle;resizable=0;points=[];fontSize=12;" parent="ZT_BPjnvB9a1OKsx-e9D-1" vertex="1" connectable="0">
                    <mxGeometry x="0.2111" y="2" relative="1" as="geometry">
                        <mxPoint x="18" y="-2" as="offset"/>
                    </mxGeometry>
                </mxCell>
            </root>
        </mxGraphModel>
    </diagram>
</mxfile>
